<svg width="151" height="106" viewBox="0 0 151 106" fill="none" xmlns="http://www.w3.org/2000/svg">
<path d="M23 45.5C31.2031 45.5 38 38.9375 38 30.5C38 22.2969 31.2031 15.5 23 15.5C14.5625 15.5 8 22.2969 8 30.5C8 38.9375 14.5625 45.5 23 45.5ZM128 45.5C136.203 45.5 143 38.9375 143 30.5C143 22.2969 136.203 15.5 128 15.5C119.562 15.5 113 22.2969 113 30.5C113 38.9375 119.562 45.5 128 45.5ZM135.5 53H120.5C116.281 53 112.531 54.875 109.719 57.4531C119.328 62.6094 125.891 71.9844 127.531 83H143C146.984 83 150.5 79.7188 150.5 75.5V68C150.5 59.7969 143.703 53 135.5 53ZM75.5 53C89.7969 53 101.75 41.2812 101.75 26.75C101.75 12.4531 89.7969 0.5 75.5 0.5C60.9688 0.5 49.25 12.4531 49.25 26.75C49.25 41.2812 60.9688 53 75.5 53ZM93.3125 60.5H91.4375C86.5156 62.8438 81.125 64.25 75.5 64.25C69.6406 64.25 64.25 62.8438 59.3281 60.5H57.4531C42.4531 60.5 30.5 72.6875 30.5 87.6875V94.25C30.5 100.578 35.4219 105.5 41.75 105.5H109.25C115.344 105.5 120.5 100.578 120.5 94.25V87.6875C120.5 72.6875 108.312 60.5 93.3125 60.5ZM41.0469 57.4531C38.2344 54.875 34.4844 53 30.5 53H15.5C7.0625 53 0.5 59.7969 0.5 68V75.5C0.5 79.7188 3.78125 83 8 83H23.2344C24.875 71.9844 31.4375 62.6094 41.0469 57.4531Z" fill="white"/>
</svg>
