<svg id="Layer_1" data-name="Layer 1" xmlns="http://www.w3.org/2000/svg" viewBox="0 0 45 45"><defs><style>.cls-1{fill:#ff5a5a;}</style></defs><title>mailArtboard 1</title><path class="cls-1" d="M43.19,16.51c-2,1.54-4.45,3.42-13.17,9.75-1.71,1.28-4.88,4.1-7.87,4.1S16,27.54,14.2,26.26C5.48,19.93,3,18.05,1,16.51a.48.48,0,0,0-.77.43V34.38a4.06,4.06,0,0,0,4.11,4.11H39.94A4.11,4.11,0,0,0,44,34.38V16.94A.54.54,0,0,0,43.19,16.51Zm-21,11c2,.09,4.79-2.48,6.24-3.5,11.38-8.21,12.23-9,14.8-11A1.94,1.94,0,0,0,44,11.38V9.75a4.16,4.16,0,0,0-4.1-4.1H4.37A4.11,4.11,0,0,0,.26,9.75v1.63A1.88,1.88,0,0,0,1,13c2.57,2.06,3.42,2.83,14.79,11C17.28,25.06,20.1,27.63,22.15,27.54Z"/></svg>