<svg id="Layer_1" data-name="Layer 1" xmlns="http://www.w3.org/2000/svg" viewBox="0 0 45 45"><defs><style>.cls-1{fill:#e01e5a;}.cls-2{fill:#36c5f0;}.cls-3{fill:#2eb67d;}.cls-4{fill:#ecb22e;}</style></defs><title>slackArtboard 1</title><path class="cls-1" d="M11.12,27.09a4,4,0,1,1-4-4h4Z"/><path class="cls-1" d="M13.13,27.09a4,4,0,0,1,8,0v10a4,4,0,0,1-8,0Z"/><path class="cls-2" d="M17.13,11a4,4,0,1,1,4-4v4Z"/><path class="cls-2" d="M17.13,13.05a4,4,0,0,1,0,8h-10a4,4,0,0,1,0-8Z"/><path class="cls-3" d="M33.19,17.05a4,4,0,1,1,4,4h-4Z"/><path class="cls-3" d="M31.17,17.05a4,4,0,1,1-8,0V7a4,4,0,1,1,8,0Z"/><path class="cls-4" d="M27.17,33.11a4,4,0,1,1-4,4v-4Z"/><path class="cls-4" d="M27.17,31.09a4,4,0,0,1,0-8h10a4,4,0,0,1,0,8Z"/></svg>